<mxfile host="Electron" agent="Mozilla/5.0 (Windows NT 10.0; Win64; x64) AppleWebKit/537.36 (KHTML, like Gecko) draw.io/28.2.7 Chrome/138.0.7204.251 Electron/37.7.1 Safari/537.36" version="28.2.7">
  <diagram name="Page-1" id="ZV09QY17Rs8oNFz4mhTL">
    <mxGraphModel dx="1489" dy="894" grid="1" gridSize="10" guides="1" tooltips="1" connect="1" arrows="1" fold="1" page="1" pageScale="1" pageWidth="850" pageHeight="1100" background="none" math="0" shadow="0">
      <root>
        <mxCell id="0" />
        <mxCell id="1" parent="0" />
        <mxCell id="ftPgFrTNSF_2koEcd409-2" value="SimInit" style="rounded=1;whiteSpace=wrap;html=1;fillColor=#dae8fc;strokeColor=#6c8ebf;" vertex="1" parent="1">
          <mxGeometry x="320" y="200" width="120" height="40" as="geometry" />
        </mxCell>
        <mxCell id="UAgzPb9IPhfJk1SHa_W6-73" style="edgeStyle=orthogonalEdgeStyle;rounded=0;orthogonalLoop=1;jettySize=auto;html=1;exitX=0.5;exitY=1;exitDx=0;exitDy=0;entryX=0.5;entryY=0;entryDx=0;entryDy=0;" edge="1" parent="1" source="ftPgFrTNSF_2koEcd409-1" target="UAgzPb9IPhfJk1SHa_W6-71">
          <mxGeometry relative="1" as="geometry" />
        </mxCell>
        <mxCell id="ftPgFrTNSF_2koEcd409-1" value="Start" style="ellipse;whiteSpace=wrap;html=1;fillColor=#fff2cc;strokeColor=#d6b656;" vertex="1" parent="1">
          <mxGeometry x="335" y="40" width="90" height="50" as="geometry" />
        </mxCell>
        <mxCell id="UAgzPb9IPhfJk1SHa_W6-36" style="edgeStyle=orthogonalEdgeStyle;rounded=0;orthogonalLoop=1;jettySize=auto;html=1;exitX=0.5;exitY=1;exitDx=0;exitDy=0;" edge="1" parent="1" source="ftPgFrTNSF_2koEcd409-5" target="UAgzPb9IPhfJk1SHa_W6-7">
          <mxGeometry relative="1" as="geometry" />
        </mxCell>
        <mxCell id="ftPgFrTNSF_2koEcd409-5" value="Error caught" style="rhombus;whiteSpace=wrap;html=1;fillColor=#e1d5e7;strokeColor=#9673a6;" vertex="1" parent="1">
          <mxGeometry x="312.5" y="280" width="135" height="80" as="geometry" />
        </mxCell>
        <mxCell id="ftPgFrTNSF_2koEcd409-8" value="" style="endArrow=classic;html=1;rounded=0;" edge="1" parent="1">
          <mxGeometry width="50" height="50" relative="1" as="geometry">
            <mxPoint x="379.5" y="240" as="sourcePoint" />
            <mxPoint x="380" y="280" as="targetPoint" />
          </mxGeometry>
        </mxCell>
        <mxCell id="UAgzPb9IPhfJk1SHa_W6-1" value="Yes" style="text;html=1;whiteSpace=wrap;strokeColor=none;fillColor=none;align=center;verticalAlign=middle;rounded=0;" vertex="1" parent="1">
          <mxGeometry x="447.5" y="300" width="32.5" height="20" as="geometry" />
        </mxCell>
        <mxCell id="UAgzPb9IPhfJk1SHa_W6-2" value="End" style="ellipse;whiteSpace=wrap;html=1;fillColor=#f8cecc;strokeColor=#b85450;" vertex="1" parent="1">
          <mxGeometry x="640" y="520" width="80" height="50" as="geometry" />
        </mxCell>
        <mxCell id="UAgzPb9IPhfJk1SHa_W6-6" value="" style="edgeStyle=segmentEdgeStyle;endArrow=classic;html=1;curved=0;rounded=0;endSize=8;startSize=8;" edge="1" parent="1">
          <mxGeometry width="50" height="50" relative="1" as="geometry">
            <mxPoint x="447.5" y="320" as="sourcePoint" />
            <mxPoint x="678" y="360" as="targetPoint" />
            <Array as="points">
              <mxPoint x="677.5" y="320" />
              <mxPoint x="677.5" y="360" />
            </Array>
          </mxGeometry>
        </mxCell>
        <mxCell id="UAgzPb9IPhfJk1SHa_W6-37" style="edgeStyle=orthogonalEdgeStyle;rounded=0;orthogonalLoop=1;jettySize=auto;html=1;exitX=0.5;exitY=1;exitDx=0;exitDy=0;" edge="1" parent="1" source="UAgzPb9IPhfJk1SHa_W6-7">
          <mxGeometry relative="1" as="geometry">
            <mxPoint x="380" y="480" as="targetPoint" />
          </mxGeometry>
        </mxCell>
        <mxCell id="UAgzPb9IPhfJk1SHa_W6-7" value="Run Normal main loop logic" style="rounded=1;whiteSpace=wrap;html=1;fillColor=#d5e8d4;strokeColor=#82b366;" vertex="1" parent="1">
          <mxGeometry x="320" y="400" width="120" height="40" as="geometry" />
        </mxCell>
        <mxCell id="UAgzPb9IPhfJk1SHa_W6-10" value="Continue Normal main loop logic" style="rounded=1;whiteSpace=wrap;html=1;fillColor=#d5e8d4;strokeColor=#82b366;" vertex="1" parent="1">
          <mxGeometry x="320" y="620" width="120" height="40" as="geometry" />
        </mxCell>
        <mxCell id="UAgzPb9IPhfJk1SHa_W6-42" style="edgeStyle=orthogonalEdgeStyle;rounded=0;orthogonalLoop=1;jettySize=auto;html=1;exitX=0.5;exitY=1;exitDx=0;exitDy=0;entryX=0.5;entryY=0;entryDx=0;entryDy=0;" edge="1" parent="1" target="UAgzPb9IPhfJk1SHa_W6-31">
          <mxGeometry relative="1" as="geometry">
            <mxPoint x="380" y="660" as="sourcePoint" />
          </mxGeometry>
        </mxCell>
        <mxCell id="UAgzPb9IPhfJk1SHa_W6-31" value="End" style="ellipse;whiteSpace=wrap;html=1;fillColor=#fff2cc;strokeColor=#d6b656;" vertex="1" parent="1">
          <mxGeometry x="340" y="690" width="80" height="50" as="geometry" />
        </mxCell>
        <mxCell id="UAgzPb9IPhfJk1SHa_W6-57" value="" style="whiteSpace=wrap;html=1;aspect=fixed;fillColor=none;dashed=1;dashPattern=8 8;strokeColor=#007FFF;" vertex="1" parent="1">
          <mxGeometry x="630" y="80" width="170" height="170" as="geometry" />
        </mxCell>
        <mxCell id="UAgzPb9IPhfJk1SHa_W6-49" value="start/end" style="rounded=1;whiteSpace=wrap;html=1;fillColor=#fff2cc;strokeColor=#d6b656;" vertex="1" parent="1">
          <mxGeometry x="670" y="95" width="90" height="20" as="geometry" />
        </mxCell>
        <mxCell id="UAgzPb9IPhfJk1SHa_W6-51" value="process" style="rounded=1;whiteSpace=wrap;html=1;fillColor=#d5e8d4;strokeColor=#82b366;" vertex="1" parent="1">
          <mxGeometry x="670" y="125" width="90" height="20" as="geometry" />
        </mxCell>
        <mxCell id="UAgzPb9IPhfJk1SHa_W6-53" value="function/method" style="rounded=1;whiteSpace=wrap;html=1;fillColor=#dae8fc;strokeColor=#6c8ebf;" vertex="1" parent="1">
          <mxGeometry x="670" y="155" width="90" height="20" as="geometry" />
        </mxCell>
        <mxCell id="UAgzPb9IPhfJk1SHa_W6-55" value="decision" style="rounded=1;whiteSpace=wrap;html=1;fillColor=#e1d5e7;strokeColor=#9673a6;" vertex="1" parent="1">
          <mxGeometry x="670" y="185" width="90" height="20" as="geometry" />
        </mxCell>
        <mxCell id="UAgzPb9IPhfJk1SHa_W6-56" value="exit" style="rounded=1;whiteSpace=wrap;html=1;fillColor=#f8cecc;strokeColor=#b85450;" vertex="1" parent="1">
          <mxGeometry x="670" y="215" width="90" height="20" as="geometry" />
        </mxCell>
        <mxCell id="UAgzPb9IPhfJk1SHa_W6-58" value="No" style="text;html=1;whiteSpace=wrap;strokeColor=none;fillColor=none;align=center;verticalAlign=middle;rounded=0;" vertex="1" parent="1">
          <mxGeometry x="380" y="360" width="30" height="20" as="geometry" />
        </mxCell>
        <mxCell id="UAgzPb9IPhfJk1SHa_W6-60" value="Error caught" style="rhombus;whiteSpace=wrap;html=1;fillColor=#e1d5e7;strokeColor=#9673a6;" vertex="1" parent="1">
          <mxGeometry x="312.5" y="480" width="135" height="80" as="geometry" />
        </mxCell>
        <mxCell id="UAgzPb9IPhfJk1SHa_W6-61" value="Yes" style="text;html=1;whiteSpace=wrap;strokeColor=none;fillColor=none;align=center;verticalAlign=middle;rounded=0;" vertex="1" parent="1">
          <mxGeometry x="447.5" y="500" width="32.5" height="20" as="geometry" />
        </mxCell>
        <mxCell id="UAgzPb9IPhfJk1SHa_W6-62" value="" style="edgeStyle=segmentEdgeStyle;endArrow=classic;html=1;curved=0;rounded=0;endSize=8;startSize=8;" edge="1" parent="1">
          <mxGeometry width="50" height="50" relative="1" as="geometry">
            <mxPoint x="450" y="520" as="sourcePoint" />
            <mxPoint x="540" y="560" as="targetPoint" />
          </mxGeometry>
        </mxCell>
        <mxCell id="UAgzPb9IPhfJk1SHa_W6-66" style="edgeStyle=orthogonalEdgeStyle;rounded=0;orthogonalLoop=1;jettySize=auto;html=1;exitX=0;exitY=0.25;exitDx=0;exitDy=0;entryX=0.5;entryY=0;entryDx=0;entryDy=0;" edge="1" parent="1" source="UAgzPb9IPhfJk1SHa_W6-63" target="UAgzPb9IPhfJk1SHa_W6-10">
          <mxGeometry relative="1" as="geometry">
            <Array as="points">
              <mxPoint x="380" y="580" />
              <mxPoint x="380" y="580" />
            </Array>
          </mxGeometry>
        </mxCell>
        <mxCell id="UAgzPb9IPhfJk1SHa_W6-63" value="No" style="text;html=1;whiteSpace=wrap;strokeColor=none;fillColor=none;align=center;verticalAlign=middle;rounded=0;" vertex="1" parent="1">
          <mxGeometry x="380" y="560" width="30" height="20" as="geometry" />
        </mxCell>
        <mxCell id="UAgzPb9IPhfJk1SHa_W6-64" value="Display Hint Panel in Consol" style="rounded=1;whiteSpace=wrap;html=1;fillColor=#d5e8d4;strokeColor=#82b366;" vertex="1" parent="1">
          <mxGeometry x="480" y="560" width="120" height="40" as="geometry" />
        </mxCell>
        <mxCell id="UAgzPb9IPhfJk1SHa_W6-65" value="" style="edgeStyle=segmentEdgeStyle;endArrow=none;html=1;curved=0;rounded=0;endSize=8;startSize=8;startArrow=classic;startFill=1;endFill=0;exitX=1;exitY=0.5;exitDx=0;exitDy=0;" edge="1" parent="1" source="UAgzPb9IPhfJk1SHa_W6-10">
          <mxGeometry width="50" height="50" relative="1" as="geometry">
            <mxPoint x="450" y="640" as="sourcePoint" />
            <mxPoint x="540" y="600" as="targetPoint" />
            <Array as="points">
              <mxPoint x="540" y="640" />
              <mxPoint x="540" y="600" />
            </Array>
          </mxGeometry>
        </mxCell>
        <mxCell id="UAgzPb9IPhfJk1SHa_W6-70" style="edgeStyle=orthogonalEdgeStyle;rounded=0;orthogonalLoop=1;jettySize=auto;html=1;exitX=0.5;exitY=1;exitDx=0;exitDy=0;entryX=0.5;entryY=0;entryDx=0;entryDy=0;" edge="1" parent="1" source="UAgzPb9IPhfJk1SHa_W6-67" target="UAgzPb9IPhfJk1SHa_W6-68">
          <mxGeometry relative="1" as="geometry" />
        </mxCell>
        <mxCell id="UAgzPb9IPhfJk1SHa_W6-67" value="Display Hint Panel in Consol" style="rounded=1;whiteSpace=wrap;html=1;fillColor=#d5e8d4;strokeColor=#82b366;" vertex="1" parent="1">
          <mxGeometry x="620" y="360" width="120" height="40" as="geometry" />
        </mxCell>
        <mxCell id="UAgzPb9IPhfJk1SHa_W6-69" style="edgeStyle=orthogonalEdgeStyle;rounded=0;orthogonalLoop=1;jettySize=auto;html=1;entryX=0.5;entryY=0;entryDx=0;entryDy=0;" edge="1" parent="1" source="UAgzPb9IPhfJk1SHa_W6-68" target="UAgzPb9IPhfJk1SHa_W6-2">
          <mxGeometry relative="1" as="geometry" />
        </mxCell>
        <mxCell id="UAgzPb9IPhfJk1SHa_W6-68" value="Run SimEnd" style="rounded=1;whiteSpace=wrap;html=1;fillColor=#dae8fc;strokeColor=#6c8ebf;" vertex="1" parent="1">
          <mxGeometry x="620" y="440" width="120" height="40" as="geometry" />
        </mxCell>
        <mxCell id="UAgzPb9IPhfJk1SHa_W6-72" style="edgeStyle=orthogonalEdgeStyle;rounded=0;orthogonalLoop=1;jettySize=auto;html=1;exitX=0.5;exitY=1;exitDx=0;exitDy=0;entryX=0.5;entryY=0;entryDx=0;entryDy=0;" edge="1" parent="1" source="UAgzPb9IPhfJk1SHa_W6-71" target="ftPgFrTNSF_2koEcd409-2">
          <mxGeometry relative="1" as="geometry" />
        </mxCell>
        <mxCell id="UAgzPb9IPhfJk1SHa_W6-71" value="Wrapp Runscript and its functions" style="rounded=1;whiteSpace=wrap;html=1;fillColor=#d5e8d4;strokeColor=#82b366;" vertex="1" parent="1">
          <mxGeometry x="320" y="125" width="120" height="40" as="geometry" />
        </mxCell>
      </root>
    </mxGraphModel>
  </diagram>
</mxfile>
